<mxfile host="app.diagrams.net" modified="2022-10-21T03:49:52.619Z" agent="5.0 (Windows NT 10.0; WOW64) AppleWebKit/537.36 (KHTML, like Gecko) Chrome/106.0.0.0 Safari/537.36" etag="FijAVTkd6Pb2QehXJQTE" version="20.4.1" type="github">
  <diagram id="C5RBs43oDa-KdzZeNtuy" name="Page-1">
    <mxGraphModel dx="1102" dy="499" grid="1" gridSize="10" guides="1" tooltips="1" connect="1" arrows="1" fold="1" page="1" pageScale="1" pageWidth="1169" pageHeight="1654" math="0" shadow="0">
      <root>
        <mxCell id="WIyWlLk6GJQsqaUBKTNV-0" />
        <mxCell id="WIyWlLk6GJQsqaUBKTNV-1" parent="WIyWlLk6GJQsqaUBKTNV-0" />
        <mxCell id="xMEhKXdo0Dg8h1xwSSGG-7" value="" style="edgeStyle=orthogonalEdgeStyle;rounded=0;orthogonalLoop=1;jettySize=auto;html=1;" edge="1" parent="WIyWlLk6GJQsqaUBKTNV-1" source="WIyWlLk6GJQsqaUBKTNV-3" target="xMEhKXdo0Dg8h1xwSSGG-6">
          <mxGeometry relative="1" as="geometry" />
        </mxCell>
        <mxCell id="WIyWlLk6GJQsqaUBKTNV-3" value="View Profile" style="rounded=1;whiteSpace=wrap;html=1;fontSize=12;glass=0;strokeWidth=1;shadow=0;" parent="WIyWlLk6GJQsqaUBKTNV-1" vertex="1">
          <mxGeometry x="70" y="110" width="120" height="40" as="geometry" />
        </mxCell>
        <mxCell id="xMEhKXdo0Dg8h1xwSSGG-45" style="edgeStyle=orthogonalEdgeStyle;rounded=0;orthogonalLoop=1;jettySize=auto;html=1;" edge="1" parent="WIyWlLk6GJQsqaUBKTNV-1" source="WIyWlLk6GJQsqaUBKTNV-7" target="xMEhKXdo0Dg8h1xwSSGG-43">
          <mxGeometry relative="1" as="geometry" />
        </mxCell>
        <mxCell id="WIyWlLk6GJQsqaUBKTNV-7" value="Show OTP popup with countdown" style="shape=parallelogram;perimeter=parallelogramPerimeter;whiteSpace=wrap;html=1;fixedSize=1;" parent="WIyWlLk6GJQsqaUBKTNV-1" vertex="1">
          <mxGeometry x="253.75" y="410" width="162.5" height="40" as="geometry" />
        </mxCell>
        <mxCell id="xMEhKXdo0Dg8h1xwSSGG-5" value="" style="edgeStyle=orthogonalEdgeStyle;rounded=0;orthogonalLoop=1;jettySize=auto;html=1;" edge="1" parent="WIyWlLk6GJQsqaUBKTNV-1" target="WIyWlLk6GJQsqaUBKTNV-3">
          <mxGeometry relative="1" as="geometry">
            <mxPoint x="130" y="70" as="sourcePoint" />
          </mxGeometry>
        </mxCell>
        <mxCell id="xMEhKXdo0Dg8h1xwSSGG-4" value="Start" style="ellipse;whiteSpace=wrap;html=1;" vertex="1" parent="WIyWlLk6GJQsqaUBKTNV-1">
          <mxGeometry x="90" y="30" width="80" height="50" as="geometry" />
        </mxCell>
        <mxCell id="xMEhKXdo0Dg8h1xwSSGG-9" value="" style="edgeStyle=orthogonalEdgeStyle;rounded=0;orthogonalLoop=1;jettySize=auto;html=1;" edge="1" parent="WIyWlLk6GJQsqaUBKTNV-1" source="xMEhKXdo0Dg8h1xwSSGG-6" target="xMEhKXdo0Dg8h1xwSSGG-8">
          <mxGeometry relative="1" as="geometry" />
        </mxCell>
        <mxCell id="xMEhKXdo0Dg8h1xwSSGG-6" value="Click verify button" style="shape=parallelogram;perimeter=parallelogramPerimeter;whiteSpace=wrap;html=1;fixedSize=1;" vertex="1" parent="WIyWlLk6GJQsqaUBKTNV-1">
          <mxGeometry x="55" y="180" width="150" height="40" as="geometry" />
        </mxCell>
        <mxCell id="xMEhKXdo0Dg8h1xwSSGG-11" value="" style="edgeStyle=orthogonalEdgeStyle;rounded=0;orthogonalLoop=1;jettySize=auto;html=1;" edge="1" parent="WIyWlLk6GJQsqaUBKTNV-1" source="xMEhKXdo0Dg8h1xwSSGG-8">
          <mxGeometry relative="1" as="geometry">
            <mxPoint x="254" y="305" as="targetPoint" />
          </mxGeometry>
        </mxCell>
        <mxCell id="xMEhKXdo0Dg8h1xwSSGG-21" value="" style="edgeStyle=orthogonalEdgeStyle;rounded=0;orthogonalLoop=1;jettySize=auto;html=1;" edge="1" parent="WIyWlLk6GJQsqaUBKTNV-1" source="xMEhKXdo0Dg8h1xwSSGG-8" target="xMEhKXdo0Dg8h1xwSSGG-20">
          <mxGeometry relative="1" as="geometry" />
        </mxCell>
        <mxCell id="xMEhKXdo0Dg8h1xwSSGG-8" value="check whether &lt;br&gt;an email is&lt;br&gt;&amp;nbsp;available ?&amp;nbsp;" style="rhombus;whiteSpace=wrap;html=1;" vertex="1" parent="WIyWlLk6GJQsqaUBKTNV-1">
          <mxGeometry x="65" y="250" width="130" height="110" as="geometry" />
        </mxCell>
        <mxCell id="xMEhKXdo0Dg8h1xwSSGG-13" value="" style="edgeStyle=orthogonalEdgeStyle;rounded=0;orthogonalLoop=1;jettySize=auto;html=1;" edge="1" parent="WIyWlLk6GJQsqaUBKTNV-1" source="xMEhKXdo0Dg8h1xwSSGG-12" target="WIyWlLk6GJQsqaUBKTNV-7">
          <mxGeometry relative="1" as="geometry" />
        </mxCell>
        <mxCell id="xMEhKXdo0Dg8h1xwSSGG-17" value="" style="edgeStyle=orthogonalEdgeStyle;rounded=0;orthogonalLoop=1;jettySize=auto;html=1;" edge="1" parent="WIyWlLk6GJQsqaUBKTNV-1" source="xMEhKXdo0Dg8h1xwSSGG-12" target="xMEhKXdo0Dg8h1xwSSGG-16">
          <mxGeometry relative="1" as="geometry" />
        </mxCell>
        <mxCell id="xMEhKXdo0Dg8h1xwSSGG-12" value="Check whether &lt;br&gt;count down&lt;br&gt;&amp;nbsp;is enable?" style="rhombus;whiteSpace=wrap;html=1;" vertex="1" parent="WIyWlLk6GJQsqaUBKTNV-1">
          <mxGeometry x="260" y="240" width="150" height="130" as="geometry" />
        </mxCell>
        <mxCell id="xMEhKXdo0Dg8h1xwSSGG-14" value="Yes" style="text;html=1;strokeColor=none;fillColor=none;align=center;verticalAlign=middle;whiteSpace=wrap;rounded=0;" vertex="1" parent="WIyWlLk6GJQsqaUBKTNV-1">
          <mxGeometry x="270" y="370" width="60" height="30" as="geometry" />
        </mxCell>
        <mxCell id="xMEhKXdo0Dg8h1xwSSGG-15" value="Yes" style="text;html=1;strokeColor=none;fillColor=none;align=center;verticalAlign=middle;whiteSpace=wrap;rounded=0;" vertex="1" parent="WIyWlLk6GJQsqaUBKTNV-1">
          <mxGeometry x="195" y="260" width="60" height="30" as="geometry" />
        </mxCell>
        <mxCell id="xMEhKXdo0Dg8h1xwSSGG-23" value="" style="edgeStyle=orthogonalEdgeStyle;rounded=0;orthogonalLoop=1;jettySize=auto;html=1;entryX=0.5;entryY=0;entryDx=0;entryDy=0;" edge="1" parent="WIyWlLk6GJQsqaUBKTNV-1" source="xMEhKXdo0Dg8h1xwSSGG-16" target="xMEhKXdo0Dg8h1xwSSGG-24">
          <mxGeometry relative="1" as="geometry">
            <mxPoint x="535.0999999999999" y="410" as="targetPoint" />
          </mxGeometry>
        </mxCell>
        <mxCell id="xMEhKXdo0Dg8h1xwSSGG-41" value="" style="edgeStyle=orthogonalEdgeStyle;rounded=0;orthogonalLoop=1;jettySize=auto;html=1;" edge="1" parent="WIyWlLk6GJQsqaUBKTNV-1" source="xMEhKXdo0Dg8h1xwSSGG-16" target="xMEhKXdo0Dg8h1xwSSGG-40">
          <mxGeometry relative="1" as="geometry" />
        </mxCell>
        <mxCell id="xMEhKXdo0Dg8h1xwSSGG-16" value="Check whether&lt;br&gt;&amp;nbsp;user reach maximus&lt;br&gt;&amp;nbsp;count of tries ?" style="rhombus;whiteSpace=wrap;html=1;" vertex="1" parent="WIyWlLk6GJQsqaUBKTNV-1">
          <mxGeometry x="486.25" y="240" width="150" height="130" as="geometry" />
        </mxCell>
        <mxCell id="xMEhKXdo0Dg8h1xwSSGG-18" value="No" style="text;html=1;strokeColor=none;fillColor=none;align=center;verticalAlign=middle;whiteSpace=wrap;rounded=0;" vertex="1" parent="WIyWlLk6GJQsqaUBKTNV-1">
          <mxGeometry x="390" y="250" width="60" height="30" as="geometry" />
        </mxCell>
        <mxCell id="xMEhKXdo0Dg8h1xwSSGG-19" value="No" style="text;html=1;strokeColor=none;fillColor=none;align=center;verticalAlign=middle;whiteSpace=wrap;rounded=0;" vertex="1" parent="WIyWlLk6GJQsqaUBKTNV-1">
          <mxGeometry x="65" y="360" width="60" height="30" as="geometry" />
        </mxCell>
        <mxCell id="xMEhKXdo0Dg8h1xwSSGG-20" value="End" style="ellipse;whiteSpace=wrap;html=1;" vertex="1" parent="WIyWlLk6GJQsqaUBKTNV-1">
          <mxGeometry x="87.5" y="400" width="85" height="60" as="geometry" />
        </mxCell>
        <mxCell id="xMEhKXdo0Dg8h1xwSSGG-30" value="" style="edgeStyle=orthogonalEdgeStyle;rounded=0;orthogonalLoop=1;jettySize=auto;html=1;" edge="1" parent="WIyWlLk6GJQsqaUBKTNV-1" source="xMEhKXdo0Dg8h1xwSSGG-24" target="xMEhKXdo0Dg8h1xwSSGG-29">
          <mxGeometry relative="1" as="geometry" />
        </mxCell>
        <mxCell id="xMEhKXdo0Dg8h1xwSSGG-42" style="edgeStyle=orthogonalEdgeStyle;rounded=0;orthogonalLoop=1;jettySize=auto;html=1;" edge="1" parent="WIyWlLk6GJQsqaUBKTNV-1" source="xMEhKXdo0Dg8h1xwSSGG-24">
          <mxGeometry relative="1" as="geometry">
            <mxPoint x="720" y="340" as="targetPoint" />
          </mxGeometry>
        </mxCell>
        <mxCell id="xMEhKXdo0Dg8h1xwSSGG-24" value="&lt;div&gt;Check weather&lt;/div&gt;&lt;div&gt;&amp;nbsp;user can verify the email again?&lt;/div&gt;" style="rhombus;whiteSpace=wrap;html=1;" vertex="1" parent="WIyWlLk6GJQsqaUBKTNV-1">
          <mxGeometry x="491.26" y="420" width="140" height="120" as="geometry" />
        </mxCell>
        <mxCell id="xMEhKXdo0Dg8h1xwSSGG-27" value="Yes" style="text;html=1;strokeColor=none;fillColor=none;align=center;verticalAlign=middle;whiteSpace=wrap;rounded=0;" vertex="1" parent="WIyWlLk6GJQsqaUBKTNV-1">
          <mxGeometry x="615.63" y="490" width="60" height="30" as="geometry" />
        </mxCell>
        <mxCell id="xMEhKXdo0Dg8h1xwSSGG-28" value="Yes" style="text;html=1;strokeColor=none;fillColor=none;align=center;verticalAlign=middle;whiteSpace=wrap;rounded=0;" vertex="1" parent="WIyWlLk6GJQsqaUBKTNV-1">
          <mxGeometry x="490" y="380" width="60" height="30" as="geometry" />
        </mxCell>
        <mxCell id="xMEhKXdo0Dg8h1xwSSGG-55" style="edgeStyle=orthogonalEdgeStyle;rounded=0;orthogonalLoop=1;jettySize=auto;html=1;" edge="1" parent="WIyWlLk6GJQsqaUBKTNV-1" source="xMEhKXdo0Dg8h1xwSSGG-29">
          <mxGeometry relative="1" as="geometry">
            <mxPoint x="50" y="612.5" as="targetPoint" />
          </mxGeometry>
        </mxCell>
        <mxCell id="xMEhKXdo0Dg8h1xwSSGG-29" value="Shows an Error message that coming from the backend" style="shape=parallelogram;perimeter=parallelogramPerimeter;whiteSpace=wrap;html=1;fixedSize=1;" vertex="1" parent="WIyWlLk6GJQsqaUBKTNV-1">
          <mxGeometry x="461.89" y="590" width="198.75" height="45" as="geometry" />
        </mxCell>
        <mxCell id="xMEhKXdo0Dg8h1xwSSGG-31" value="No" style="text;html=1;strokeColor=none;fillColor=none;align=center;verticalAlign=middle;whiteSpace=wrap;rounded=0;" vertex="1" parent="WIyWlLk6GJQsqaUBKTNV-1">
          <mxGeometry x="470" y="530" width="60" height="30" as="geometry" />
        </mxCell>
        <mxCell id="xMEhKXdo0Dg8h1xwSSGG-39" style="edgeStyle=orthogonalEdgeStyle;rounded=0;orthogonalLoop=1;jettySize=auto;html=1;exitX=0.5;exitY=1;exitDx=0;exitDy=0;" edge="1" parent="WIyWlLk6GJQsqaUBKTNV-1">
          <mxGeometry relative="1" as="geometry">
            <mxPoint x="930" y="405" as="sourcePoint" />
            <mxPoint x="930" y="405" as="targetPoint" />
          </mxGeometry>
        </mxCell>
        <mxCell id="xMEhKXdo0Dg8h1xwSSGG-44" style="edgeStyle=orthogonalEdgeStyle;rounded=0;orthogonalLoop=1;jettySize=auto;html=1;entryX=1;entryY=0.5;entryDx=0;entryDy=0;" edge="1" parent="WIyWlLk6GJQsqaUBKTNV-1" source="xMEhKXdo0Dg8h1xwSSGG-40" target="xMEhKXdo0Dg8h1xwSSGG-43">
          <mxGeometry relative="1" as="geometry">
            <Array as="points">
              <mxPoint x="860" y="305" />
              <mxPoint x="860" y="767" />
            </Array>
          </mxGeometry>
        </mxCell>
        <mxCell id="xMEhKXdo0Dg8h1xwSSGG-40" value="Verify Email and show OTP popup with countdown&amp;nbsp;" style="shape=parallelogram;perimeter=parallelogramPerimeter;whiteSpace=wrap;html=1;fixedSize=1;" vertex="1" parent="WIyWlLk6GJQsqaUBKTNV-1">
          <mxGeometry x="675.63" y="272.5" width="174.37" height="65" as="geometry" />
        </mxCell>
        <mxCell id="xMEhKXdo0Dg8h1xwSSGG-46" style="edgeStyle=orthogonalEdgeStyle;rounded=0;orthogonalLoop=1;jettySize=auto;html=1;entryX=0;entryY=0.5;entryDx=0;entryDy=0;" edge="1" parent="WIyWlLk6GJQsqaUBKTNV-1" source="xMEhKXdo0Dg8h1xwSSGG-43" target="WIyWlLk6GJQsqaUBKTNV-3">
          <mxGeometry relative="1" as="geometry" />
        </mxCell>
        <mxCell id="xMEhKXdo0Dg8h1xwSSGG-51" value="" style="edgeStyle=orthogonalEdgeStyle;rounded=0;orthogonalLoop=1;jettySize=auto;html=1;" edge="1" parent="WIyWlLk6GJQsqaUBKTNV-1" source="xMEhKXdo0Dg8h1xwSSGG-43" target="xMEhKXdo0Dg8h1xwSSGG-49">
          <mxGeometry relative="1" as="geometry" />
        </mxCell>
        <mxCell id="xMEhKXdo0Dg8h1xwSSGG-43" value="is OTP verified?" style="rhombus;whiteSpace=wrap;html=1;" vertex="1" parent="WIyWlLk6GJQsqaUBKTNV-1">
          <mxGeometry x="278.13" y="707" width="113.75" height="120" as="geometry" />
        </mxCell>
        <mxCell id="xMEhKXdo0Dg8h1xwSSGG-47" value="Yes" style="text;html=1;strokeColor=none;fillColor=none;align=center;verticalAlign=middle;whiteSpace=wrap;rounded=0;" vertex="1" parent="WIyWlLk6GJQsqaUBKTNV-1">
          <mxGeometry x="200" y="730" width="60" height="30" as="geometry" />
        </mxCell>
        <mxCell id="xMEhKXdo0Dg8h1xwSSGG-48" value="End" style="ellipse;whiteSpace=wrap;html=1;" vertex="1" parent="WIyWlLk6GJQsqaUBKTNV-1">
          <mxGeometry x="284.99" y="930" width="100" height="60" as="geometry" />
        </mxCell>
        <mxCell id="xMEhKXdo0Dg8h1xwSSGG-52" value="" style="edgeStyle=orthogonalEdgeStyle;rounded=0;orthogonalLoop=1;jettySize=auto;html=1;" edge="1" parent="WIyWlLk6GJQsqaUBKTNV-1" source="xMEhKXdo0Dg8h1xwSSGG-49" target="xMEhKXdo0Dg8h1xwSSGG-48">
          <mxGeometry relative="1" as="geometry" />
        </mxCell>
        <mxCell id="xMEhKXdo0Dg8h1xwSSGG-49" value="Show Invalid error Message" style="rounded=1;whiteSpace=wrap;html=1;" vertex="1" parent="WIyWlLk6GJQsqaUBKTNV-1">
          <mxGeometry x="269.06" y="850" width="131.87" height="40" as="geometry" />
        </mxCell>
        <mxCell id="xMEhKXdo0Dg8h1xwSSGG-53" value="No" style="text;html=1;strokeColor=none;fillColor=none;align=center;verticalAlign=middle;whiteSpace=wrap;rounded=0;" vertex="1" parent="WIyWlLk6GJQsqaUBKTNV-1">
          <mxGeometry x="260" y="812" width="60" height="30" as="geometry" />
        </mxCell>
        <mxCell id="xMEhKXdo0Dg8h1xwSSGG-54" value="No" style="text;html=1;strokeColor=none;fillColor=none;align=center;verticalAlign=middle;whiteSpace=wrap;rounded=0;" vertex="1" parent="WIyWlLk6GJQsqaUBKTNV-1">
          <mxGeometry x="630" y="260" width="60" height="30" as="geometry" />
        </mxCell>
      </root>
    </mxGraphModel>
  </diagram>
</mxfile>
